<svg xmlns="http://www.w3.org/2000/svg" xmlns:xlink="http://www.w3.org/1999/xlink" viewBox="0 0 94 22" xml:space="preserve"><defs><path id="a" d="M0 0h94v21.181H0z"/></defs><clipPath id="b"><use xlink:href="#a" overflow="visible"/></clipPath><g clip-path="url(#b)" fill="#05050A"><path d="M92.306 5.952a1.174 1.174 0 0 0-.169-.191.74.74 0 0 0-.17-.095c.212-.032.371-.106.487-.233a.641.641 0 0 0 .169-.455.668.668 0 0 0-.095-.349.613.613 0 0 0-.233-.233.888.888 0 0 0-.381-.116c-.053 0-.318-.032-.784-.032h-.498V6.79h.561v-.986h.064c.138 0 .254.011.349.074.095.074.201.244.35.508l.201.402h.614l-.285-.518a7.287 7.287 0 0 1-.18-.318zm-.435-.625c-.074.021-.254.042-.54.042h-.138V4.66h.138c.286 0 .466.021.54.042a.329.329 0 0 1 .169.116.29.29 0 0 1 .064.18.294.294 0 0 1-.064.191.41.41 0 0 1-.169.138z"/><path d="M93.682 4.332a2.225 2.225 0 0 0-.858-.858 2.484 2.484 0 0 0-1.144-.297c-.392 0-.784.095-1.144.297a2.086 2.086 0 0 0-.858.858 2.322 2.322 0 0 0-.318 1.165c0 .402.106.794.307 1.154.201.371.487.657.858.858.371.201.752.307 1.154.307.402 0 .794-.106 1.154-.307.371-.201.657-.487.858-.858.203-.371.309-.752.309-1.154a2.32 2.32 0 0 0-.318-1.165zm-.381 2.096c-.169.297-.392.53-.688.688-.297.169-.604.244-.932.244s-.635-.085-.932-.244a1.713 1.713 0 0 1-.688-.688 1.828 1.828 0 0 1-.244-.932c0-.328.085-.635.254-.943.169-.297.402-.53.688-.688.297-.159.604-.244.921-.244.318 0 .625.085.921.244.297.159.53.392.699.688.169.297.254.614.254.943a2.055 2.055 0 0 1-.253.932zM29.208 3.177c-4.967 0-9.002 4.035-9.002 9.002 0 4.967 4.035 9.002 9.002 9.002 4.967 0 9.002-4.035 9.002-9.002 0-4.956-4.035-9.002-9.002-9.002zm0 13.503a4.511 4.511 0 0 1-4.501-4.501 4.511 4.511 0 0 1 4.501-4.501 4.511 4.511 0 0 1 4.501 4.501 4.51 4.51 0 0 1-4.501 4.501zM43.992.688h-4.501v20.026h4.501V.688zM54.265 3.177c-4.967 0-9.002 4.035-9.002 9.002 0 4.967 4.035 9.002 9.002 9.002s9.002-4.035 9.002-9.002c0-4.956-4.035-9.002-9.002-9.002zm0 13.503a4.511 4.511 0 0 1-4.501-4.501 4.511 4.511 0 0 1 4.501-4.501 4.511 4.511 0 0 1 4.501 4.501 4.511 4.511 0 0 1-4.501 4.501zM69.049 4.056h-4.501v16.648h4.501v-8.081a4.511 4.511 0 0 1 4.501-4.501v-4.49c-1.642 0-3.177.635-4.501 1.663V4.056zM88.514 3.611H74.736v4.501h6.015L73.56 20.704h14.668v-4.49h-6.916l7.202-12.603zM10.59 16.68a6.097 6.097 0 0 1-6.089-6.089 6.097 6.097 0 0 1 6.089-6.089 6.074 6.074 0 0 1 5.263 3.05l3.897-2.256C17.919 2.139 14.509 0 10.59 0 4.744 0 0 4.744 0 10.59s4.744 10.59 10.59 10.59c3.918 0 7.328-2.139 9.161-5.295l-3.897-2.245a6.09 6.09 0 0 1-5.264 3.04z"/></g></svg>