<?xml version="1.0" encoding="UTF-8"?>
<!DOCTYPE svg PUBLIC "-//W3C//DTD SVG 1.1//EN" "http://www.w3.org/Graphics/SVG/1.1/DTD/svg11.dtd">
<svg xmlns="http://www.w3.org/2000/svg" version="1.1" width="1313px" height="888px" style="shape-rendering:geometricPrecision; text-rendering:geometricPrecision; image-rendering:optimizeQuality; fill-rule:evenodd; clip-rule:evenodd" xmlns:xlink="http://www.w3.org/1999/xlink">
<g><path style="opacity:1" fill="#fefffe" d="M 330.5,-0.5 C 348.833,-0.5 367.167,-0.5 385.5,-0.5C 407.62,3.37512 429.953,6.70845 452.5,9.5C 450.771,29.3196 445.938,48.3196 438,66.5C 436.421,68.0412 434.587,69.2078 432.5,70C 426.224,71.4245 419.891,71.7578 413.5,71C 395.339,68.7388 377.173,66.5722 359,64.5C 332.354,64.7867 307.187,70.9534 283.5,83C 261.207,98.6598 246.707,119.826 240,146.5C 229.102,193.559 219.602,240.892 211.5,288.5C 280.5,288.5 349.5,288.5 418.5,288.5C 425.223,245.827 432.057,203.16 439,160.5C 466.956,152.678 494.956,145.011 523,137.5C 514.345,187.612 504.845,237.612 494.5,287.5C 538.828,288.5 583.162,288.833 627.5,288.5C 624.965,309.575 621.965,330.575 618.5,351.5C 572.505,352.5 526.505,352.833 480.5,352.5C 467.838,424.98 454.338,497.313 440,569.5C 436.719,602.573 451.219,623.406 483.5,632C 510.003,636.71 536.337,635.71 562.5,629C 728.359,587.032 868.193,502.865 982,376.5C 916.281,325.045 849.781,324.545 782.5,375C 745.128,408.751 726.961,450.917 728,501.5C 730.215,512.073 731.715,522.74 732.5,533.5C 733.091,538.939 731.925,543.939 729,548.5C 713.647,560.505 696.48,568.672 677.5,573C 649.574,505.344 654.074,439.844 691,376.5C 741.255,299.958 812.421,264.791 904.5,271C 966.715,278.352 1017.55,306.185 1057,354.5C 1062.86,361.711 1066.69,369.878 1068.5,379C 1065.88,391.069 1060.72,401.902 1053,411.5C 1023.8,447.703 990.964,480.203 954.5,509C 888.704,563.382 817.037,609.048 739.5,646C 670.085,678.604 597.085,697.271 520.5,702C 486.393,704.889 453.393,700.223 421.5,688C 381.314,669.334 361.314,637.667 361.5,593C 361.852,583.126 362.686,573.293 364,563.5C 377.438,494.141 390.938,424.808 404.5,355.5C 389.905,353.562 375.238,352.395 360.5,352C 311.16,351.273 261.827,351.606 212.5,353C 203.372,353.79 197.539,358.623 195,367.5C 192.595,374.047 190.595,380.714 189,387.5C 157.539,543.137 126.206,698.804 95,854.5C 93.3815,863.98 90.3815,872.98 86,881.5C 83.8859,884.121 81.3859,886.121 78.5,887.5C 55.5,887.5 32.5,887.5 9.5,887.5C 44.0005,709.003 80.0005,530.836 117.5,353C 78.5014,352.5 39.5014,352.333 0.5,352.5C 3.83354,333.831 9.33354,315.831 17,298.5C 18.5,295.667 20.6667,293.5 23.5,292C 29.366,290.213 35.366,289.213 41.5,289C 66.5,288.667 91.5,288.333 116.5,288C 121.581,287.533 125.748,285.366 129,281.5C 132.66,274.187 135.327,266.52 137,258.5C 143.076,226.118 149.41,193.785 156,161.5C 163.445,123.285 179.445,89.2846 204,59.5C 227.609,34.6038 256.109,17.7704 289.5,9C 303.254,5.61997 316.921,2.4533 330.5,-0.5 Z"/></g>
<g><path style="opacity:1" fill="#fefefe" d="M 1224.5,142.5 C 1225.5,142.5 1226.5,142.5 1227.5,142.5C 1207.12,254.567 1186.29,366.567 1165,478.5C 1160.33,499.833 1155.67,521.167 1151,542.5C 1147.01,560.029 1146.01,577.696 1148,595.5C 1153.34,612.513 1164.51,624.013 1181.5,630C 1202.57,636.098 1223.9,637.098 1245.5,633C 1267.14,629.09 1288.47,623.923 1309.5,617.5C 1310.17,617.833 1310.83,618.167 1311.5,618.5C 1309.42,637.001 1306.25,655.335 1302,673.5C 1300.64,685.105 1294.47,692.605 1283.5,696C 1259.77,700.856 1235.77,703.023 1211.5,702.5C 1184.3,703.642 1157.96,699.475 1132.5,690C 1090.07,671.038 1068.74,638.204 1068.5,591.5C 1068.67,587.167 1068.83,582.833 1069,578.5C 1094.03,443.032 1119.69,307.698 1146,172.5C 1147.68,167.822 1150.51,163.989 1154.5,161C 1167.76,154.183 1181.76,149.516 1196.5,147C 1205.96,145.367 1215.29,143.867 1224.5,142.5 Z"/></g>
<g><path style="opacity:1" fill="#fefefe" d="M 1015.5,562.5 C 1016.5,562.414 1017.33,562.748 1018,563.5C 1031.43,584.132 1039.93,606.632 1043.5,631C 1043.3,637.597 1041.14,643.431 1037,648.5C 1006.46,678.028 970.289,697.528 928.5,707C 863.065,718.766 802.898,705.932 748,668.5C 747.501,664.179 747.334,659.846 747.5,655.5C 766.235,646.801 785.235,638.634 804.5,631C 809.5,630.333 814.5,630.333 819.5,631C 902.624,658.572 967.957,635.738 1015.5,562.5 Z"/></g>
</svg>
