<svg version="1.1" id="Layer_1" xmlns="http://www.w3.org/2000/svg" xmlns:xlink="http://www.w3.org/1999/xlink" x="0px" y="0px"
	 width="100%" viewBox="0 0 315 213" enable-background="new 0 0 315 213" xml:space="preserve">
<path fill="#000000" opacity="1.000000" stroke="none" 
	d="
M316.000000,158.000000 
	C316.000000,176.643250 316.000000,195.286484 316.000000,214.000000 
	C218.645782,214.000000 121.291550,214.000000 23.072117,213.718582 
	C30.838823,170.920486 39.470734,128.403809 48.018013,86.303955 
	C65.173271,86.303955 81.546532,86.303955 98.324883,86.303955 
	C97.820442,87.322533 97.394569,87.861908 97.279869,88.460854 
	C94.248314,104.291046 90.733818,120.051361 88.381920,135.983047 
	C85.780815,153.602829 92.480309,165.565750 112.523010,168.927048 
	C127.627480,171.460175 142.136902,168.368942 156.430862,164.010391 
	C180.817383,156.574402 202.613617,144.137054 222.633774,128.556290 
	C235.053116,118.890877 247.136581,108.846451 256.145233,95.597748 
	C258.083252,92.747528 257.783752,91.068703 256.059235,88.700577 
	C243.272400,71.141228 225.747147,63.321693 204.600098,66.490273 
	C182.372269,69.820808 167.771500,83.529266 161.322327,105.067322 
	C157.940567,116.361259 158.768616,127.791367 163.603958,138.956757 
	C168.644684,136.634201 173.345123,134.468430 177.965302,132.339645 
	C172.308990,112.768883 179.203949,94.559990 194.988785,86.297226 
	C210.781906,78.030136 228.746964,82.608002 237.358719,92.414169 
	C233.301575,96.203735 229.167191,99.997215 225.107300,103.868805 
	C201.478241,126.401917 173.770523,141.726089 142.380066,150.402756 
	C134.014404,152.715134 125.579704,155.043243 116.652527,153.145691 
	C108.690567,151.453293 105.088997,146.129181 106.674286,138.143982 
	C109.786324,122.468559 113.062241,106.813721 115.584335,91.040672 
	C116.304604,86.536125 117.799492,85.729324 121.789566,85.865906 
	C129.778671,86.139374 137.785965,86.040894 145.779739,85.847473 
	C147.005203,85.817818 148.992142,84.682648 149.268753,83.682983 
	C150.434875,79.468498 151.086517,75.111664 152.027817,70.286865 
	C141.053268,70.286865 130.613281,70.286865 119.683167,70.286865 
	C121.959068,58.270161 124.137970,46.765640 126.469444,34.455536 
	C120.632942,36.064289 115.797409,37.754150 110.818970,38.648544 
	C107.280174,39.284298 106.499901,41.102554 105.983032,44.236881 
	C104.546478,52.948158 102.706963,61.592979 101.053741,70.124199 
	C84.244453,70.124199 68.131935,70.124199 51.939411,70.124199 
	C51.874794,69.440521 51.715260,68.955635 51.804569,68.521996 
	C54.191395,56.933006 56.095222,45.210922 59.195625,33.814659 
	C61.171398,26.552259 65.543587,19.920084 73.803429,18.629154 
	C80.894218,17.520939 88.201843,17.594652 95.415413,17.563032 
	C99.098190,17.546886 102.784988,18.446981 106.447823,18.930019 
	C107.580215,13.804426 108.596779,9.203068 109.515381,5.045168 
	C107.527008,3.586830 105.763504,2.293415 104.000000,1.000000 
	C174.580948,1.000000 245.161911,1.000000 316.000000,1.000000 
	C316.000000,50.353931 316.000000,99.708305 315.590027,149.424805 
	C312.460663,150.454422 309.759064,151.208130 307.018555,151.773102 
	C299.113037,153.402847 291.212128,155.337402 283.209473,152.136780 
	C278.445587,150.231506 275.387970,147.069016 275.894928,141.687439 
	C276.295013,137.440125 277.123932,133.223480 277.932312,129.025940 
	C282.789185,103.806099 287.705780,78.597763 292.577026,53.380669 
	C293.743103,47.344219 294.812958,41.289177 296.058075,34.531822 
	C289.938477,36.173256 284.653992,37.385895 279.535736,39.096119 
	C278.114929,39.570869 276.466888,41.364777 276.150208,42.820446 
	C274.087036,52.303204 272.355865,61.858337 270.527405,71.391968 
	C266.124634,94.348099 261.210785,117.223717 257.566772,140.299789 
	C255.959579,150.477310 260.426239,160.998230 272.026337,165.967621 
	C285.301270,171.654541 298.807465,170.018799 312.511536,167.550858 
	C313.018677,164.645660 313.408325,161.877060 314.056702,159.170456 
	C314.180206,158.654709 315.325897,158.383850 316.000000,158.000000 
z"/>
<path fill="#F9F9F9" opacity="1.000000" stroke="none" 
	d="
M103.531342,1.000000 
	C105.763504,2.293415 107.527008,3.586830 109.515381,5.045168 
	C108.596779,9.203068 107.580215,13.804426 106.447823,18.930019 
	C102.784988,18.446981 99.098190,17.546886 95.415413,17.563032 
	C88.201843,17.594652 80.894218,17.520939 73.803429,18.629154 
	C65.543587,19.920084 61.171398,26.552259 59.195625,33.814659 
	C56.095222,45.210922 54.191395,56.933006 51.804569,68.521996 
	C51.715260,68.955635 51.874794,69.440521 51.939411,70.124199 
	C68.131935,70.124199 84.244453,70.124199 101.053741,70.124199 
	C102.706963,61.592979 104.546478,52.948158 105.983032,44.236881 
	C106.499901,41.102554 107.280174,39.284298 110.818970,38.648544 
	C115.797409,37.754150 120.632942,36.064289 126.469444,34.455536 
	C124.137970,46.765640 121.959068,58.270161 119.683167,70.286865 
	C130.613281,70.286865 141.053268,70.286865 152.027817,70.286865 
	C151.086517,75.111664 150.434875,79.468498 149.268753,83.682983 
	C148.992142,84.682648 147.005203,85.817818 145.779739,85.847473 
	C137.785965,86.040894 129.778671,86.139374 121.789566,85.865906 
	C117.799492,85.729324 116.304604,86.536125 115.584335,91.040672 
	C113.062241,106.813721 109.786324,122.468559 106.674286,138.143982 
	C105.088997,146.129181 108.690567,151.453293 116.652527,153.145691 
	C125.579704,155.043243 134.014404,152.715134 142.380066,150.402756 
	C173.770523,141.726089 201.478241,126.401917 225.107300,103.868805 
	C229.167191,99.997215 233.301575,96.203735 237.358719,92.414169 
	C228.746964,82.608002 210.781906,78.030136 194.988785,86.297226 
	C179.203949,94.559990 172.308990,112.768883 177.965302,132.339645 
	C173.345123,134.468430 168.644684,136.634201 163.603958,138.956757 
	C158.768616,127.791367 157.940567,116.361259 161.322327,105.067322 
	C167.771500,83.529266 182.372269,69.820808 204.600098,66.490273 
	C225.747147,63.321693 243.272400,71.141228 256.059235,88.700577 
	C257.783752,91.068703 258.083252,92.747528 256.145233,95.597748 
	C247.136581,108.846451 235.053116,118.890877 222.633774,128.556290 
	C202.613617,144.137054 180.817383,156.574402 156.430862,164.010391 
	C142.136902,168.368942 127.627480,171.460175 112.523010,168.927048 
	C92.480309,165.565750 85.780815,153.602829 88.381920,135.983047 
	C90.733818,120.051361 94.248314,104.291046 97.279869,88.460854 
	C97.394569,87.861908 97.820442,87.322533 98.324883,86.303955 
	C81.546532,86.303955 65.173271,86.303955 48.018013,86.303955 
	C39.470734,128.403809 30.838823,170.920486 22.603458,213.718582 
	C16.645601,214.000000 10.291203,214.000000 3.559327,213.610077 
	C4.147100,208.729797 5.151828,204.247528 6.071076,199.747772 
	C11.299028,174.156601 16.500666,148.560074 21.723644,122.967896 
	C24.213581,110.767410 26.730892,98.572525 29.312834,86.000000 
	C19.581451,86.000000 10.290726,86.000000 1.000000,86.000000 
	C1.000000,84.285645 1.000000,82.571281 1.288206,80.793839 
	C2.414778,79.053741 3.681992,77.455345 4.006663,75.684166 
	C4.804488,71.331802 6.975574,69.893944 11.449350,70.167290 
	C18.516092,70.599083 25.628578,70.282249 32.644718,70.282249 
	C34.567730,60.409359 36.315506,51.038185 38.227943,41.700737 
	C42.150536,22.548750 51.764839,8.285796 71.739174,2.963320 
	C72.294411,2.815369 72.585655,1.676696 73.000000,1.000000 
	C83.020897,1.000000 93.041786,1.000000 103.531342,1.000000 
z"/>
<path fill="#F8F8F8" opacity="1.000000" stroke="none" 
	d="
M316.000000,157.555832 
	C315.325897,158.383850 314.180206,158.654709 314.056702,159.170456 
	C313.408325,161.877060 313.018677,164.645660 312.511536,167.550858 
	C298.807465,170.018799 285.301270,171.654541 272.026337,165.967621 
	C260.426239,160.998230 255.959579,150.477310 257.566772,140.299789 
	C261.210785,117.223717 266.124634,94.348099 270.527405,71.391968 
	C272.355865,61.858337 274.087036,52.303204 276.150208,42.820446 
	C276.466888,41.364777 278.114929,39.570869 279.535736,39.096119 
	C284.653992,37.385895 289.938477,36.173256 296.058075,34.531822 
	C294.812958,41.289177 293.743103,47.344219 292.577026,53.380669 
	C287.705780,78.597763 282.789185,103.806099 277.932312,129.025940 
	C277.123932,133.223480 276.295013,137.440125 275.894928,141.687439 
	C275.387970,147.069016 278.445587,150.231506 283.209473,152.136780 
	C291.212128,155.337402 299.113037,153.402847 307.018555,151.773102 
	C309.759064,151.208130 312.460663,150.454422 315.590027,149.893463 
	C316.000000,152.370560 316.000000,154.741104 316.000000,157.555832 
z"/>
<path fill="#000000" opacity="1.000000" stroke="none" 
	d="
M72.531342,1.000000 
	C72.585655,1.676696 72.294411,2.815369 71.739174,2.963320 
	C51.764839,8.285796 42.150536,22.548750 38.227943,41.700737 
	C36.315506,51.038185 34.567730,60.409359 32.644718,70.282249 
	C25.628578,70.282249 18.516092,70.599083 11.449350,70.167290 
	C6.975574,69.893944 4.804488,71.331802 4.006663,75.684166 
	C3.681992,77.455345 2.414778,79.053741 1.288206,80.365372 
	C1.000000,53.743179 1.000000,27.486359 1.000000,1.000000 
	C24.687067,1.000000 48.374874,1.000000 72.531342,1.000000 
z"/>
<path fill="#000000" opacity="1.000000" stroke="none" 
	d="
M1.000000,86.468658 
	C10.290726,86.000000 19.581451,86.000000 29.312834,86.000000 
	C26.730892,98.572525 24.213581,110.767410 21.723644,122.967896 
	C16.500666,148.560074 11.299028,174.156601 6.071076,199.747772 
	C5.151828,204.247528 4.147100,208.729797 3.090924,213.610077 
	C2.333333,213.670044 1.119111,213.382614 1.089642,213.003174 
	C0.910118,210.691650 1.000000,208.359222 1.000000,206.033768 
	C1.000000,166.334946 1.000000,126.636131 1.000000,86.468658 
z"/>
</svg>